<?xml version="1.0" encoding="utf-8"?>
<!-- Generator: Adobe Illustrator 28.1.0, SVG Export Plug-In . SVG Version: 6.00 Build 0)  -->
<svg version="1.1" id="Layer_1" xmlns="http://www.w3.org/2000/svg" xmlns:xlink="http://www.w3.org/1999/xlink" x="0px" y="0px"
	 viewBox="0 0 512 512" style="enable-background:new 0 0 512 512;" xml:space="preserve">
<style type="text/css">
	.st0{fill-rule:evenodd;clip-rule:evenodd;fill:#5957D9;}
</style>
<path class="st0" d="M256,0C114.8,0,0,114.8,0,256s114.8,256,256,256s256-114.8,256-256S397.2,0,256,0z M294.8,409.5L294.8,409.5
	c0,5.5-4.5,10-10,10h-54.2c-5.5,0-10-4.5-10-10c0-5.5,4.5-10,10-10h54.2C290.3,399.5,294.8,404,294.8,409.5
	C294.8,409.5,294.8,409.5,294.8,409.5z M308.3,376.6c0,5.5-4.5,10-10,10h-81.3c-5.5,0-10-4.5-10-10c0-5.5,4.5-10,10-10h81.3
	C303.9,366.6,308.3,371.1,308.3,376.6L308.3,376.6z M323.6,304.7v39c0,5.5-4.5,10-10,10H201.8c-5.5,0-10-4.5-10-10v-36.4
	C142.1,271.8,130.5,202.7,166,153c20.7-29.1,54.3-46.4,90-46.4c61.1,0,110.5,49.5,110.5,110.6C366.5,251.5,350.7,283.8,323.6,304.7z
	"/>
</svg>
